# xmcd
#
# Track frame offsets: 
#        150
#        61268
#        119918
#        169946
#        243625
#
# Disc length: 4438 seconds
#
# Revision: 1
# Processed by: cddbd v1.5.2PL0 Copyright (c) Steve Scherf et al.
# Submitted via: ExactAudioCopy v0.99pb4
#
DISCID=48115405
DTITLE=Simak Dialog - Patahan
DYEAR=2007
DGENRE=Jazz
TTITLE0=One Has To Be
TTITLE1=Spur Of The Moments
TTITLE2=Kemarau
TTITLE3=Worthseeing
TTITLE4=Kain Sigli
EXTD=
EXTT0=
EXTT1=
EXTT2=
EXTT3=
EXTT4=
PLAYORDER=
